<?xml version="1.0" encoding="UTF-8" standalone="no"?>
<!-- Created with Inkscape (http://www.inkscape.org/) -->

<svg
   version="1.1"
   id="svg2"
   width="617.97333"
   height="229.98666"
   viewBox="0 0 617.97333 229.98666"
   sodipodi:docname="bank-mandiri-seeklogo.eps"
   xmlns:inkscape="http://www.inkscape.org/namespaces/inkscape"
   xmlns:sodipodi="http://sodipodi.sourceforge.net/DTD/sodipodi-0.dtd"
   xmlns="http://www.w3.org/2000/svg"
   xmlns:svg="http://www.w3.org/2000/svg">
  <defs
     id="defs6">
    <clipPath
       clipPathUnits="userSpaceOnUse"
       id="clipPath34">
      <path
         d="m 4170.46,1315.57 c -61.96,70.7 -127.87,38.71 -180.21,12.7 -22.01,-10.88 -181.01,-101.02 -181.01,-101.02 -87.11,-35.93 -154.95,3.27 -181.59,36.27 -2.75,3.48 -5.13,6.75 -6.93,9.94 l -6.15,10.73 c -9.52,16.09 -20.94,34.28 -34.95,52.21 -7.5,9.73 -15.86,19.45 -25.07,28.64 -59.57,60.2 -154.86,102.32 -314.1,25.79 -75.36,-43.69 -320.98,-184.03 -320.98,-184.03 -92.23,-38 -162.88,8.3 -185.77,42.24 -1.01,1.28 -2.02,2.8 -2.67,4.09 l -3.01,5.14 -15.58,25.43 c -6.67,10.51 -14.05,21.32 -22.55,32.41 -7.57,9.68 -15.99,19.32 -25.13,28.6 -59.21,59.82 -153.95,101.85 -311.77,26.78 -95.45,-54.48 -317.41,-181.42 -317.41,-181.42 -0.05,-0.07 -0.05,-0.07 -0.07,-0.07 -91.34,-52.2 -162.48,-92.82 -162.48,-92.82 l 84.06,-103.223 c 35.36,-33.711 101.87,-88.992 204.74,-42.383 0,0 283.9,164.406 285.01,164.886 242.72,133.21 362.54,5.93 415.44,-78.9 1.84,-2.65 3.36,-5.52 4.99,-8.1 l 0.13,-0.12 c 0.63,-1.03 1.08,-1.99 1.61,-2.96 l 6.03,-9.81 c 25.74,-39.117 66.49,-64.371 114.97,-63.218 26.75,0.539 44.9,9.277 71.34,23.945 l 274.69,159.333 c 0.17,0.09 0.31,0.18 0.58,0.25 245.74,134.82 367.54,-0.79 419.56,-85.62 4.04,-7.34 8.67,-14.32 13.34,-20.86 25.75,-34.927 61.29,-57.798 106.4,-56.697 29.78,0.606 63.2,18.488 68.14,21.77 l 329.37,190.057 c 0,0 -33.69,50.82 -102.97,130.04 z"
         id="path32" />
    </clipPath>
    <linearGradient
       x1="0"
       y1="0"
       x2="1"
       y2="0"
       gradientUnits="userSpaceOnUse"
       gradientTransform="matrix(2564.38,1184.29,1184.29,-2564.38,2074.2,686.93)"
       spreadMethod="pad"
       id="linearGradient50">
      <stop
         style="stop-opacity:1;stop-color:#fab10b"
         offset="0"
         id="stop36" />
      <stop
         style="stop-opacity:1;stop-color:#fbc707"
         offset="0.224719"
         id="stop38" />
      <stop
         style="stop-opacity:1;stop-color:#f89c0e"
         offset="0.393258"
         id="stop40" />
      <stop
         style="stop-opacity:1;stop-color:#fbc707"
         offset="0.52809"
         id="stop42" />
      <stop
         style="stop-opacity:1;stop-color:#f89c0e"
         offset="0.646067"
         id="stop44" />
      <stop
         style="stop-opacity:1;stop-color:#fbc707"
         offset="0.764045"
         id="stop46" />
      <stop
         style="stop-opacity:1;stop-color:#fbc707"
         offset="1"
         id="stop48" />
    </linearGradient>
  </defs>
  <sodipodi:namedview
     id="namedview4"
     pagecolor="#ffffff"
     bordercolor="#000000"
     borderopacity="0.25"
     inkscape:showpageshadow="2"
     inkscape:pageopacity="0.0"
     inkscape:pagecheckerboard="0"
     inkscape:deskcolor="#d1d1d1" />
  <g
     id="g8"
     inkscape:groupmode="layer"
     inkscape:label="ink_ext_XXXXXX"
     transform="matrix(1.3333333,0,0,-1.3333333,0,229.98667)">
    <g
       id="g10"
       transform="scale(0.1)">
      <path
         d="M 4634.78,0 H 0 V 1724.92 H 4634.78 V 0"
         style="fill:#ffffff;fill-opacity:1;fill-rule:nonzero;stroke:none"
         id="path12" />
      <path
         d="m 365.41,649.141 c 0,56.539 -0.984,104.031 -4.062,146.394 h 107.058 l 5.078,-72.785 h 2.993 c 24.207,38.422 68.64,83.93 151.461,83.93 64.66,0 115.109,-36.438 136.292,-90.891 h 2.071 c 17.156,27.246 37.304,47.441 60.515,61.531 27.266,19.184 58.653,29.36 98.977,29.36 81.807,0 164.557,-55.532 164.557,-213.18 V 303.789 H 969.211 v 271.633 c 0,81.719 -28.266,130.258 -87.856,130.258 -42.39,0 -73.726,-30.321 -86.824,-65.68 -3.027,-12.012 -6.062,-27.25 -6.062,-41.309 V 303.789 H 667.297 v 284.832 c 0,68.52 -27.231,117.059 -84.848,117.059 -46.355,0 -77.652,-36.371 -88.863,-70.668 -5.012,-12.102 -7.055,-26.282 -7.055,-40.364 V 303.789 H 365.41 v 345.352"
         style="fill:#133a73;fill-opacity:1;fill-rule:nonzero;stroke:none"
         id="path14" />
      <path
         d="m 1441.19,544.031 c -87.88,2.047 -171.64,-17.109 -171.64,-91.82 0,-48.461 31.36,-70.723 70.69,-70.723 49.4,0 85.81,32.41 96.91,67.731 2.99,9.121 4.04,19.14 4.04,27.222 z M 1562.4,421.898 c 0,-44.378 2,-87.757 7.01,-118.109 h -112.09 l -8.04,54.492 h -3.06 c -30.32,-38.41 -81.81,-65.57 -145.31,-65.57 -99.01,0 -154.53,71.609 -154.53,146.379 0,124.269 109.96,186.781 291.82,185.789 v 8.07 c 0,32.321 -13.18,85.852 -100.03,85.852 -48.49,0 -98.95,-15.18 -132.26,-36.34 l -24.22,80.769 c 36.35,22.247 99.96,43.45 177.67,43.45 157.57,0 203.04,-100.051 203.04,-207 V 421.898"
         style="fill:#133a73;fill-opacity:1;fill-rule:nonzero;stroke:none"
         id="path16" />
      <path
         d="m 1648.19,649.141 c 0,56.539 -1.05,104.031 -3.95,146.394 h 108.94 l 6.05,-73.805 h 3.07 c 21.19,38.422 74.72,84.95 156.49,84.95 85.86,0 174.66,-55.532 174.66,-211.121 v -291.77 h -124.16 v 277.602 c 0,70.738 -26.31,124.289 -93.92,124.289 -49.42,0 -83.84,-35.348 -96.91,-72.731 -4.03,-11.097 -5.05,-26.238 -5.05,-40.32 v -288.84 h -125.22 v 345.352"
         style="fill:#133a73;fill-opacity:1;fill-rule:nonzero;stroke:none"
         id="path18" />
      <path
         d="m 2507.73,590.582 c 0,10.039 -1,22.168 -3.07,32.328 -11.1,48.36 -50.41,87.781 -106.99,87.781 -79.77,0 -124.25,-70.691 -124.25,-162.57 0,-89.781 44.48,-155.473 123.28,-155.473 50.38,0 94.86,34.352 106.95,87.891 3.08,11.07 4.08,23.242 4.08,36.332 z m 124.14,402.477 V 442.141 c 0,-50.469 2.09,-105.059 4.05,-138.352 h -111 l -5.06,77.699 h -2.06 c -29.27,-54.5 -88.86,-88.777 -160.51,-88.777 -117.16,0 -209.98,99.937 -209.98,251.32 -1.08,164.641 101.89,262.649 220.05,262.649 67.62,0 116.12,-28.282 138.31,-64.766 h 2.06 v 251.145 h 124.14"
         style="fill:#133a73;fill-opacity:1;fill-rule:nonzero;stroke:none"
         id="path20" />
      <path
         d="m 2719.71,303.789 v 491.746 h 125.27 V 303.789 h -125.27"
         style="fill:#133a73;fill-opacity:1;fill-rule:nonzero;stroke:none"
         id="path22" />
      <path
         d="m 2932.74,636.969 c 0,66.652 -1,114.179 -3.97,158.566 h 108.05 l 3.95,-93.805 h 4.11 c 24.24,69.567 81.73,93.805 134.36,93.805 12.04,0 19.12,2.024 29.16,0 V 686.43 c -10.04,2.039 -21.11,4.05 -36.28,4.05 -59.64,0 -100.03,-38.351 -111.1,-93.808 -1.96,-11.141 -4.03,-24.332 -4.03,-38.481 V 303.789 h -124.25 v 333.18"
         style="fill:#133a73;fill-opacity:1;fill-rule:nonzero;stroke:none"
         id="path24" />
      <path
         d="m 3266.04,303.789 v 491.746 h 125.11 V 303.789 h -125.11"
         style="fill:#133a73;fill-opacity:1;fill-rule:nonzero;stroke:none"
         id="path26" />
      <g
         id="g28">
        <g
           id="g30"
           clip-path="url(#clipPath34)">
          <path
             d="m 4170.46,1315.57 c -61.96,70.7 -127.87,38.71 -180.21,12.7 -22.01,-10.88 -181.01,-101.02 -181.01,-101.02 -87.11,-35.93 -154.95,3.27 -181.59,36.27 -2.75,3.48 -5.13,6.75 -6.93,9.94 l -6.15,10.73 c -9.52,16.09 -20.94,34.28 -34.95,52.21 -7.5,9.73 -15.86,19.45 -25.07,28.64 -59.57,60.2 -154.86,102.32 -314.1,25.79 -75.36,-43.69 -320.98,-184.03 -320.98,-184.03 -92.23,-38 -162.88,8.3 -185.77,42.24 -1.01,1.28 -2.02,2.8 -2.67,4.09 l -3.01,5.14 -15.58,25.43 c -6.67,10.51 -14.05,21.32 -22.55,32.41 -7.57,9.68 -15.99,19.32 -25.13,28.6 -59.21,59.82 -153.95,101.85 -311.77,26.78 -95.45,-54.48 -317.41,-181.42 -317.41,-181.42 -0.05,-0.07 -0.05,-0.07 -0.07,-0.07 -91.34,-52.2 -162.48,-92.82 -162.48,-92.82 l 84.06,-103.223 c 35.36,-33.711 101.87,-88.992 204.74,-42.383 0,0 283.9,164.406 285.01,164.886 242.72,133.21 362.54,5.93 415.44,-78.9 1.84,-2.65 3.36,-5.52 4.99,-8.1 l 0.13,-0.12 c 0.63,-1.03 1.08,-1.99 1.61,-2.96 l 6.03,-9.81 c 25.74,-39.117 66.49,-64.371 114.97,-63.218 26.75,0.539 44.9,9.277 71.34,23.945 l 274.69,159.333 c 0.17,0.09 0.31,0.18 0.58,0.25 245.74,134.82 367.54,-0.79 419.56,-85.62 4.04,-7.34 8.67,-14.32 13.34,-20.86 25.75,-34.927 61.29,-57.798 106.4,-56.697 29.78,0.606 63.2,18.488 68.14,21.77 l 329.37,190.057 c 0,0 -33.69,50.82 -102.97,130.04"
             style="fill:url(#linearGradient50);fill-opacity:1;fill-rule:nonzero;stroke:none"
             id="path52" />
        </g>
      </g>
    </g>
  </g>
</svg>
